<svg id="Layer_1" data-name="Layer 1" xmlns="http://www.w3.org/2000/svg" viewBox="0 0 512 512"><title>settings-handdrawn</title><g style="isolation:isolate"><path d="M223.62,415.63c-.56,1,65.07,32.1,62.68,36.24S231.91,433.59,231,435.13c0,0,50.81,24.81,48.83,28.23-.18.31-47.11-16.24-47.92-14.83-1.87,3.24,43.18,24.55,43,24.86-.81,1.4-46.51-15-47.48-13.34,0,.08,43.42,24.4,43.12,24.93,0,0-33.33-9.63-34.66-7.32,0,0,18.33,10.27,18.19,10.52" fill="none" stroke="#00ace4" stroke-linecap="round" stroke-linejoin="round" stroke-width="10.44"/><path d="M95.86,285.07C91.56,292.52,311.4,409.69,311.4,409.69,310,412.17,100.65,289.62,95.15,299.16c-3.07,5.32,201.61,114,200.5,115.93,0,0-186-109.11-192.16-98.47,0,0,192,91.55,183.62,106.17-.61,1-167.31-102.25-175.51-88-6.79,11.78,173.06,87.08,167.45,96.82,0,0-148.09-88.68-155.37-76.06,0,0,106.22,56.39,104,60.16-4.27,7.4-112.94-58.57-115.35-54.39,0,0,50.57,25,48.73,28.17-2.4,4.17-58.76-21.34-59.95-19.27,0,0,49.6,27.1,48.92,28.28-1.68,2.91-50.33-18.07-51.63-15.81-.33.57,45.07,21.34,43,24.88,0,0-53-21.76-55-18.32-1.12,1.94,48.51,26.41,47.8,27.64C133,419.12,82.43,393.61,80,397.77c-.16.28,49.17,26.35,48.27,27.91-.66,1.15-33.43-4.21-33.43-4.21-.44.77,21.79,11.4,21.27,12.3" fill="none" stroke="#00ace4" stroke-linecap="round" stroke-linejoin="round" stroke-width="10.44"/><path d="M355.85,394.75c-1.4,2.43,61.65,35.15,61.43,35.52" fill="none" stroke="#00ace4" stroke-linecap="round" stroke-linejoin="round" stroke-width="10.44"/><path d="M323.12,181.19c-6.11,10.6,166.48,90.86,164.15,94.91,0,0-136.45-79.47-142.33-69.27L473.27,281c-5.63,9.77-122.82-58.86-122.82-58.86-.7,1.22,100,55.59,99,57.26-3.38,5.87-94.36-50.15-97.68-44.4,0,0,88,46.85,86.29,49.89-3.27,5.67-86.56-37.6-86.56-37.6-2.56,4.44,68.81,34,66.31,38.34-1.7,3-62-27.35-63.63-24.57,0,0,57.08,30.84,56.15,32.46-1,1.79-57.58-24.64-60-20.41-1.65,2.86,65,37.44,64.93,37.54s-62.84-25.41-63.5-24.26c-.51.88,57.7,29.6,56.07,32.42-1.38,2.4-60.19-25.45-62.83-20.88-2.06,3.58,56.45,32.63,56.45,32.64-2.6,4.51-59.47-24.91-60.73-22.73-.17.3,55.84,27.31,53.69,31-2.34,4.06-65.2-25.24-66.5-23-2.59,4.5,66.87,36.74,66,38.18-1.23,2.14-73.26-31.62-74.27-29.87-3.31,5.74,95.43,53.91,94.88,54.86-2.17,3.76-95.82-44-96.34-43.08-3.73,6.46,113.55,59.84,111,64.2-2.83,4.9-114.8-63.49-118.8-56.56l119.65,69.18c-6.22,10.8-135.46-66.61-136.67-64.52C289.58,355,419.25,408.73,413.93,418c-1.75,3-134.71-77.68-140.56-67.54-.12.2,76.54,40.44,74.9,43.3-2.41,4.19-87.57-37.79-87.57-37.79-2.51,4.36,74.85,35.39,71.44,41.3,0,0-101.48-46.45-102.7-44.33-2.44,4.23,98.61,47.47,94.48,54.63" fill="none" stroke="#00ace4" stroke-linecap="round" stroke-linejoin="round" stroke-width="10.44"/><path d="M99.7,77.36c-.63,1.1,17.51,9.36,17.18,9.93-.18.32-23.51-1.3-23.51-1.3-1,1.68,138.79,73,135.65,78.43-5.68,9.85-142.64-70.83-144.24-68-2,3.48,120,69.37,120,69.37-2.56,4.45-127.39-58.81-127.39-58.81-4,7,124,71.69,124,71.69-3.47,6-103.59-46.65-103.7-46.45-3.22,5.59,86.92,50.25,86.92,50.25-1.39,2.41-61.45-25.63-63.18-22.63-2.6,4.51,63.37,36,63.09,36.48C182,200.58,113.59,169,113.59,169c-.75,1.3,57.44,30.08,56.09,32.43-.55,1-56.94-22.11-58.8-18.89-2.22,3.85,57.94,30.84,56.79,32.83-.56,1-62.52-21.44-62.52-21.44-2.39,4.15,61.72,32.86,60.49,35,0,0-61.48-27-63.9-22.79-.16.27,61.78,35.72,61.78,35.72-.89,1.54-65.83-26.79-66.21-26.12-1.17,2,64.76,37.44,64.76,37.44-2.26,3.92-69.32-26.86-69.32-26.86-.77,1.33,71.38,36,69.1,40C158,273,76.32,228.49,75,230.77c-2.47,4.28,91.49,44.14,87.7,50.71-1,1.68-101.45-53.65-105-47.49-5,8.64,108.81,60.52,107.77,62.31,0,0-129.61-63.16-130.8-61.1,0,0,145.3,72.54,140.34,81.14C173.8,318.45,29.7,244.47,29.7,244.47c-2,3.5,67.6,39.08,67.6,39.08-2.58,4.47-70.8-28.74-71.92-26.79,0,0,42.24,23.22,41.72,24.12-.19.32-42-11.21-42.36-10.6-.25.43,17.37,9.16,17,9.82" fill="none" stroke="#00ace4" stroke-linecap="round" stroke-linejoin="round" stroke-width="10.44"/><path d="M477.39,234.21s10.4,5.52,10.19,5.89c-1.1,1.91-40.42-8.36-40.42-8.36-1,1.67,35.4,20.47,35.4,20.47-1.83,3.17-56.38-22.78-57.75-20.41-1.69,2.92,67.46,33.92,65.26,37.73" fill="none" stroke="#00ace4" stroke-linecap="round" stroke-linejoin="round" stroke-width="10.44"/><path d="M264.44,22.31s10.1,5.27,9.85,5.7c0,0-24.78-.28-24.88-.11-1.4,2.42,27.87,14.88,27.34,15.81-1.06,1.84-41.26-12.49-42.78-9.86-1.63,2.83,48.37,26.36,47.68,27.57,0,0-45.94-18-48.05-14.3,0,0,53.1,26.58,51.32,29.67-1.26,2.18-52.57-19.56-53.15-18.56-1.32,2.29,51.4,28.31,50.79,29.37-.7,1.21-52.39-20.48-54.12-17.48-7.22,12.53,171,82.3,163.82,94.72-2,3.5-164.09-87.71-166.46-83.59C218.1,94.59,406.11,181,404.17,184.38,398.06,195,229.87,90,226.78,95.32,219,108.89,412.27,200.81,411.51,202.13,402.94,217,213,100.61,213,100.61S417,216,415.89,217.89c-2.71,4.69-214.3-117.26-217.59-111.56-.21.36,102.35,58.19,101.93,58.93-3.42,5.93-114.21-64-118.74-56.16-2.21,3.83,79.33,40.36,76.95,44.49-.5.86-80.05-38.5-82.53-34.2-1.51,2.62,65.34,31.75,62.74,36.27" fill="none" stroke="#00ace4" stroke-linecap="round" stroke-linejoin="round" stroke-width="10.44"/><path d="M399.61,80.06c-.1.17,14.41,8.33,14.41,8.33-.25.44-25.61-1.94-25.9-1.43,0,0,43.66,21.29,41.95,24.25-1,1.75-52.64-15.8-52.64-15.8-1.86,3.22,44,25.47,44,25.47-1.68,2.91-47.37-15.66-47.83-14.86-1.19,2.06,44.52,25.69,44.5,25.73-1,1.82-53.45-19.64-54.3-18.16s41.24,21.46,40.21,23.25c-.46.8-53.09-19.54-55-16.29C347,124.13,402.87,148,401.3,150.73" fill="none" stroke="#00ace4" stroke-linecap="round" stroke-linejoin="round" stroke-width="10.44"/></g><path d="M500.15,290.62c12-12.29,0-17.16,0-34.32s11.9-22,0-34.32c-12.6-13.08-18.08-1.61-36.16-3.22s-18.9,2.4-36.16-3.22a193.32,193.32,0,0,0-8.7-27.13A164.47,164.47,0,0,0,406.23,163c8.37-16.24,11.74-14,23.48-28s23.81-9.7,23.48-28C452.88,89.92,441,95,428.77,83s-7.28-23.87-24.42-24.09c-18.14-.23-13.87,11.71-27.75,23.43S365,97.47,348.86,105.76a158,158,0,0,0-25.31-12.94,180.48,180.48,0,0,0-27.14-8.49c-5.6-17.44-1.51-18.25-3-36.5s10.07-23.72-3-36.5c-12.3-12-17.18,0-34.37,0s-22-12-34.37,0c-13.11,12.77-1.56,18.25-3.12,36.5s2.49,19.07-3.12,36.5a181,181,0,0,0-27,8.52,159.27,159.27,0,0,0-25.23,12.92C146.93,97.46,149.2,94,135.28,82.33s-9.66-23.66-27.83-23.43c-17.07.22-12.12,12-24.24,24.09s-24,7-24.24,24.09c-.3,18.24,11.69,14,23.38,28s15.09,11.73,23.38,28a159.44,159.44,0,0,0-13,25.36A190.65,190.65,0,0,0,84,215.54c-17.21,5.63-18,1.61-36.06,3.22S24.39,208.92,11.84,222c-11.88,12.37,0,17.16,0,34.32s-11.94,22,0,34.32c12.61,13,18,1.42,36.06,2.84s18.83-2.65,36.06,2.84a189.78,189.78,0,0,0,8.71,27.26A159.29,159.29,0,0,0,105.74,349C97.46,365.23,94.05,363,82.36,376.9S58.68,386.57,59,404.77c.28,17.12,12.12,12.09,24.24,24.17s7.14,23.83,24.24,24.17c18.08.36,13.92-11.57,27.83-23.13s11.73-14.89,27.83-23.13a198.23,198.23,0,0,0,25.29,12.8,161.67,161.67,0,0,0,27,8.63c5.61,17.28,1.56,18.11,3.12,36.21s-9.94,23.6,3.12,36.21c12.37,11.95,17.18,0,34.37,0s22,12,34.37,0c13-12.63,1.51-18.11,3-36.21s-2.57-18.93,3-36.21a161.28,161.28,0,0,0,27.08-8.6,196.26,196.26,0,0,0,25.37-12.83c16.07,8.23,13.87,11.57,27.75,23.13s9.7,23.49,27.75,23.13c17.16-.34,12.21-12.09,24.42-24.17s24.11-7,24.42-24.17c.33-18.23-11.74-13.94-23.48-27.87S414.59,365.22,406.23,349a164.28,164.28,0,0,0,12.92-25.48,192.41,192.41,0,0,0,8.68-27.23c17.29-5.5,18.16-5.05,36.16-2.84C483.05,295.8,487.49,303.63,500.15,290.62ZM255.91,342.19a85.56,85.56,0,1,1,60.85-25A85.8,85.8,0,0,1,255.91,342.19Z" fill="none" stroke="#0072bf" stroke-width="11.93"/></svg>